<svg id="svg" version="1.1" xmlns="http://www.w3.org/2000/svg" viewBox="0 0 100 100" style="display: block;"><path d="M0 0 C33 0 66 0 100 0 C100 33 100 66 100 100 C67 100 34 100 0 100 C0 67 0 34 0 0 Z " transform="translate(0,0)" style="fill: #FAB004;"/><path d="M0 0 C33 0 66 0 100 0 C100 33 100 66 100 100 C67 100 34 100 0 100 C0 67 0 34 0 0 Z M32 7 C25.6809873 14.27489477 25.6809873 14.27489477 23 23 C22.34 23.04125 21.68 23.0825 21 23.125 C17.26353933 24.21480103 14.89134318 26.13273021 11.8671875 28.52734375 C10.30232066 29.76155881 8.65828585 30.8944761 7 32 C7.31160461 34.20845985 7.62432346 36.41676251 7.9375 38.625 C8.11152344 39.85476562 8.28554687 41.08453125 8.46484375 42.3515625 C8.80738049 44.68681297 9.19164584 47.01655622 9.62890625 49.3359375 C10 52 10 52 9 54 C8.61076473 56.36950521 8.2619422 58.7457572 7.9375 61.125 C7.76089844 62.40632813 7.58429687 63.68765625 7.40234375 65.0078125 C7.26957031 65.99523437 7.13679687 66.98265625 7 68 C14.27489477 74.3190127 14.27489477 74.3190127 23 77 C23.04125 77.66 23.0825 78.32 23.125 79 C24.21480103 82.73646067 26.13273021 85.10865682 28.52734375 88.1328125 C29.76155881 89.69767934 30.8944761 91.34171415 32 93 C34.39611639 92.68955976 36.79187835 92.37671642 39.1875 92.0625 C39.86103516 91.97548828 40.53457031 91.88847656 41.22851562 91.79882812 C44.13639427 91.41583923 46.99743822 91.00056268 49.86328125 90.37109375 C52 90 52 90 54 91 C56.36950521 91.38923527 58.7457572 91.7380578 61.125 92.0625 C62.40632813 92.23910156 63.68765625 92.41570312 65.0078125 92.59765625 C65.99523437 92.73042969 66.98265625 92.86320312 68 93 C74.3190127 85.72510523 74.3190127 85.72510523 77 77 C77.845625 76.95875 78.69125 76.9175 79.5625 76.875 C83.57682502 75.85317181 85.4197668 74.24863198 88.38671875 71.47265625 C90 70 90 70 93 68 C92.69035138 65.58293696 92.37738885 63.16638113 92.0625 60.75 C91.97548828 60.06808594 91.88847656 59.38617188 91.79882812 58.68359375 C91.44164633 55.95842895 91.07974789 53.2991784 90.37109375 50.640625 C90 49 90 49 91 47 C91.3912935 44.45802036 91.74479119 41.92608411 92.0625 39.375 C92.15337891 38.66859375 92.24425781 37.9621875 92.33789062 37.234375 C92.56183119 35.4899959 92.78133818 33.74504866 93 32 C85.72510523 25.6809873 85.72510523 25.6809873 77 23 C76.95875 22.154375 76.9175 21.30875 76.875 20.4375 C75.85317181 16.42317498 74.24863198 14.5802332 71.47265625 11.61328125 C70 10 70 10 68 7 C65.77058595 7.31073024 63.54147788 7.62365625 61.3125 7.9375 C60.07113281 8.11152344 58.82976563 8.28554687 57.55078125 8.46484375 C55.41223612 8.78715473 53.27923438 9.16005968 51.16796875 9.62890625 C49 10 49 10 47 9 C45.4001366 8.7961236 43.79464703 8.63493288 42.1875 8.5 C38.73129524 8.18489016 35.38640783 7.79016183 32 7 Z " transform="translate(0,0)" style="fill: #000000;"/><path d="M0 0 C7.41573622 4.132728 12.26062084 10.01967347 14.86328125 18.17578125 C16.63411641 27.69178431 15.18104063 36.13629894 9.96484375 44.25390625 C5.62053968 49.8688285 -0.72696787 53.94698862 -7.75 55.25390625 C-17.21112287 56.10013571 -25.34399547 54.79769464 -33.0625 49.00390625 C-39.35689613 42.56312881 -42.68122697 35.57978047 -43.125 26.50390625 C-42.92931641 18.46864901 -40.1421158 10.65287089 -34.59765625 4.75390625 C-24.58786673 -3.3724345 -11.74915589 -5.40385856 0 0 Z " transform="translate(63.75,23.74609375)" style="fill: #FAB004;"/><path d="M0 0 C0.12117188 0.63808594 0.24234375 1.27617188 0.3671875 1.93359375 C0.61855469 3.17302734 0.61855469 3.17302734 0.875 4.4375 C1.03742188 5.26121094 1.19984375 6.08492187 1.3671875 6.93359375 C1.57601562 7.61550781 1.78484375 8.29742187 2 9 C2.66 9.33 3.32 9.66 4 10 C4.28875 9.360625 4.5775 8.72125 4.875 8.0625 C6 6 6 6 8 5 C8 20.84 8 36.68 8 53 C-7.84 53 -23.68 53 -40 53 C-39.01 51.68 -38.02 50.36 -37 49 C-36.34 49 -35.68 49 -35 49 C-36.62366466 45.75267068 -39.75387839 45.29844864 -43 44 C-42.67 43.34 -42.34 42.68 -42 42 C-36.06 42.99 -30.12 43.98 -24 45 C-22.68 43.02 -21.36 41.04 -20 39 C-19.46375 38.505 -18.9275 38.01 -18.375 37.5 C-16.73399354 35.94909561 -16.73399354 35.94909561 -16.25 33 C-15 30 -15 30 -11.75 28.4375 C-11.13253906 28.22222656 -10.51507813 28.00695312 -9.87890625 27.78515625 C-6.73768312 26.47250376 -4.53707252 24.24206409 -2 22 C-1.34 21.67 -0.68 21.34 0 21 C-0.30964862 18.58293696 -0.62261115 16.16638113 -0.9375 13.75 C-1.02451172 13.06808594 -1.11152344 12.38617188 -1.20117188 11.68359375 C-1.56033279 8.94332898 -1.91296132 6.29701334 -2.69140625 3.640625 C-2.84416016 2.82851563 -2.84416016 2.82851563 -3 2 C-1 0 -1 0 0 0 Z " transform="translate(92,47)" style="fill: #000000;"/><path d="M0 0 C7.54733781 4.335993 12.97863145 10.80502726 15.8203125 19.140625 C17.52934274 29.28212311 16.56638498 38.62512455 10.85546875 47.2421875 C6.00019966 53.42403285 -0.30333545 57.15007317 -7.82421875 59.25 C-17.49747872 60.22526419 -25.08972444 59.46224673 -32.97265625 53.671875 C-40.13443752 47.76140868 -45.20300398 41.41158369 -46.16015625 31.91796875 C-46.28380486 20.90087749 -44.21524726 14.11788742 -36.68359375 6.0390625 C-26.62685141 -3.63738286 -12.86516687 -6.06410484 0 0 Z M-36.82421875 8.25 C-42.56442607 15.8289924 -44.92878224 23.76456107 -43.82421875 33.25 C-42.13110364 40.2437198 -39.51161454 46.63274845 -33.82421875 51.25 C-24.94946445 56.56654548 -16.37530142 59.11643993 -6.05859375 56.56640625 C2.68835701 53.33325421 7.89047271 48.58982075 12.23046875 40.3984375 C15.45004777 33.08121245 15.2960539 24.37593586 12.55078125 16.9375 C8.75724791 8.68953902 3.47090545 3.89985465 -4.82421875 0.25 C-16.26082211 -3.39948522 -28.53620916 -0.230754 -36.82421875 8.25 Z " transform="translate(64.82421875,21.75)" style="fill: #000000;"/><path d="M0 0 C0.33 0.99 0.66 1.98 1 3 C-3.26152738 7.01801153 -3.26152738 7.01801153 -6.5625 6.9375 C-9.11718977 5.95492701 -10.92313706 4.76917954 -13 3 C-12 0 -12 0 -9.875 -1.3125 C-6.00714251 -2.23742244 -3.64781227 -1.47315496 0 0 Z " transform="translate(56,93)" style="fill: #FAAF04;"/><path d="M0 0 C0.99 0.33 1.98 0.66 3 1 C4.375 4.1875 4.375 4.1875 5 8 C3.625 11.4375 3.625 11.4375 2 14 C-0 14 -0 14 -2.1875 11.8125 C-4 9 -4 9 -3.9375 6.4375 C-2.95492701 3.88281023 -1.76917954 2.07686294 0 0 Z " transform="translate(4,43)" style="fill: #FAAF04;"/><path d="M0 0 C2.55468977 0.98257299 4.36063706 2.16832046 6.4375 3.9375 C6.1075 4.9275 5.7775 5.9175 5.4375 6.9375 C2.25 8.3125 2.25 8.3125 -1.5625 8.9375 C-5 7.5625 -5 7.5625 -7.5625 5.9375 C-7.5625 3.9375 -7.5625 3.9375 -5.375 1.75 C-2.5625 -0.0625 -2.5625 -0.0625 0 0 Z " transform="translate(50.5625,0.0625)" style="fill: #FAAF04;"/><path d="M0 0 C2 0 2 0 4.1875 2.1875 C6 5 6 5 5.9375 7.5625 C4.95492701 10.11718977 3.76917954 11.92313706 2 14 C1.01 13.67 0.02 13.34 -1 13 C-1.2236337 11.58566794 -1.42826476 10.16832382 -1.625 8.75 C-1.74101563 7.96109375 -1.85703125 7.1721875 -1.9765625 6.359375 C-2.00319395 3.67847541 -1.36592084 2.27305911 0 0 Z " transform="translate(94,43)" style="fill: #FAB104;"/><path d="M0 0 C6.38689218 2.04862579 6.38689218 2.04862579 8.1328125 4.7578125 C8.84673961 6.4698513 9.43345298 8.23370635 10 10 C6.30581799 11.231394 3.7943739 10.64432764 0 10 C-0.19412181 8.52168779 -0.38012131 7.04230684 -0.5625 5.5625 C-0.66691406 4.73878906 -0.77132813 3.91507812 -0.87890625 3.06640625 C-0.91886719 2.38449219 -0.95882813 1.70257813 -1 1 C-0.67 0.67 -0.34 0.34 0 0 Z " transform="translate(14,76)" style="fill: #FAAF04;"/><path d="M0 0 C-2.04862579 6.38689218 -2.04862579 6.38689218 -4.7578125 8.1328125 C-6.4698513 8.84673961 -8.23370635 9.43345298 -10 10 C-11.231394 6.30581799 -10.64432764 3.7943739 -10 0 C-3.375 -1.125 -3.375 -1.125 0 0 Z " transform="translate(24,14)" style="fill: #FAB004;"/><path d="M0 0 C0.66 0.33 1.32 0.66 2 1 C1.67 3.97 1.34 6.94 1 10 C-3.455 10.495 -3.455 10.495 -8 11 C-7.39130435 5.52173913 -7.39130435 5.52173913 -5.6875 3.25 C-3.84028627 1.88169353 -2.14712745 0.83114611 0 0 Z " transform="translate(85,76)" style="fill: #FAAF04;"/><path d="M0 0 C2.97 0.33 5.94 0.66 9 1 C9.33 3.97 9.66 6.94 10 10 C9.01 10.495 9.01 10.495 8 11 C4.87066127 9.76130342 2.60130917 8.84729928 0.625 6.0625 C0 4 0 4 0 0 Z " transform="translate(77,13)" style="fill: #FAAF04;"/></svg>